<?xml version="1.0" encoding="UTF-8" standalone="no"?>
<svg
   version="1.1"
   id="Layer_1"
   x="0px"
   y="0px"
   width="455.08655"
   viewBox="0 0 455.08655 75.889465"
   enable-background="new 0 0 800 600"
   xml:space="preserve"
   sodipodi:docname="logo.svg"
   height="75.889465"
   xmlns:inkscape="http://www.inkscape.org/namespaces/inkscape"
   xmlns:sodipodi="http://sodipodi.sourceforge.net/DTD/sodipodi-0.dtd"
   xmlns="http://www.w3.org/2000/svg"
   xmlns:svg="http://www.w3.org/2000/svg"><defs
   id="defs17" /><sodipodi:namedview
   id="namedview17"
   pagecolor="#ffffff"
   bordercolor="#000000"
   borderopacity="0.25"
   inkscape:showpageshadow="2"
   inkscape:pageopacity="0.0"
   inkscape:pagecheckerboard="0"
   inkscape:deskcolor="#d1d1d1"><inkscape:page
     x="0"
     y="0"
     width="455.08655"
     height="75.889465"
     id="page2"
     margin="0"
     bleed="0" /></sodipodi:namedview>
M82.849182,311.457947 
	C91.460320,307.768585 95.344444,301.839661 95.301529,292.450043 
	C95.262589,283.931671 91.560730,277.725433 84.332184,275.161438 
	C73.429710,271.294220 62.141903,273.004211 51.001301,272.628815 
	C51.001301,295.626282 51.001301,317.820496 51.001301,339.961975 
	C53.934128,339.961975 56.492332,339.961975 58.876892,339.961975 
	C59.093605,339.408844 59.202835,339.259003 59.204136,339.108246 
	C59.264393,332.128174 59.479927,325.143738 59.298065,318.169708 
	C59.206390,314.653992 60.474163,313.707886 63.885506,313.566223 
	C69.984924,313.312927 76.057854,312.421570 82.849182,311.457947 
M367.556763,272.054077 
	C366.275574,272.413300 364.950500,272.661926 363.720520,273.150146 
	C357.039459,275.802185 352.604309,280.353455 351.724457,287.764648 
	C350.885010,294.835419 353.970062,300.101440 359.730896,303.770050 
	C362.936279,305.811310 366.536194,307.231903 369.953613,308.941589 
	C373.962952,310.947388 378.272186,312.527588 381.906677,315.070770 
	C388.367218,319.591370 387.397736,328.987213 380.140381,332.082672 
	C377.071503,333.391632 373.136841,334.319580 370.044647,333.569611 
	C364.225433,332.158234 358.732025,329.403229 352.330963,326.905548 
	C351.657928,327.688049 350.104767,329.493805 348.607269,331.234863 
	C358.108032,341.493286 373.438538,344.435913 384.696106,338.557709 
	C396.995972,332.135254 398.502411,316.366089 387.434387,308.127563 
	C384.541962,305.974548 381.058990,304.599854 377.804840,302.951447 
	C373.217468,300.627686 368.275787,298.846619 364.057495,295.989258 
	C358.330536,292.109985 359.208923,283.718231 365.567688,281.059540 
	C368.631958,279.778351 372.459808,279.092621 375.663177,279.673706 
	C380.081940,280.475250 384.237183,282.729797 388.880463,284.505402 
	C389.898560,283.264984 391.214905,281.661194 392.567688,280.013000 
	C385.485077,273.085449 377.457306,270.886902 367.556763,272.054077 
M497.936127,339.498291 
	C499.833984,338.529724 501.731842,337.561188 503.781830,336.514984 
	C503.259766,335.289429 502.941559,334.349915 502.471466,333.493774 
	C502.013794,332.660309 501.400604,331.912262 500.891815,331.178802 
	C484.600372,338.303436 471.909973,332.197418 472.722900,317.377838 
	C478.143890,317.377838 483.603912,317.377838 489.063965,317.377838 
	C494.505859,317.377838 499.947784,317.377838 506.087860,317.377838 
	C505.784943,312.974365 505.856903,309.314178 505.224274,305.780090 
	C503.801636,297.833099 499.735016,291.861481 491.463440,289.760742 
	C483.077209,287.630859 475.994354,290.166260 470.233795,296.409454 
	C462.169891,305.149078 461.189545,320.912048 467.920471,331.372162 
	C473.765839,340.456085 484.592926,343.577850 497.936127,339.498291 
M286.165588,336.394287 
	C296.363464,343.489044 308.572998,343.330750 317.211731,335.757385 
	C316.395172,334.273987 315.541107,332.722473 314.705902,331.205170 
	C297.943665,338.036774 284.771759,331.744751 286.569550,317.377838 
	C291.927399,317.377838 297.376099,317.377838 302.824799,317.377838 
	C308.251831,317.377838 313.678833,317.377838 319.994263,317.377838 
	C319.411621,312.228180 319.420990,307.856964 318.361542,303.762299 
	C314.855652,290.212463 300.584167,284.813202 288.720062,292.292603 
	C274.621826,301.180481 273.021912,323.622162 286.165588,336.394287 
M142.789703,302.372772 
	C139.483200,309.675018 139.191177,317.200256 141.422791,324.801147 
	C145.796463,339.697998 162.687225,346.264008 175.439484,337.899567 
	C183.011368,332.933014 185.866272,325.294922 186.364639,316.541290 
	C187.058624,304.352295 180.299774,293.353699 170.017639,290.092560 
	C159.373276,286.716492 149.587158,290.926422 142.789703,302.372772 
M222.811554,271.356354 
	C223.031616,269.609589 224.659912,267.868744 221.357315,266.722961 
	C211.098297,263.163788 201.614853,269.058990 201.025024,279.810944 
	C200.844772,283.096680 200.997055,286.400635 200.997055,289.770691 
	C198.427002,290.281647 196.374954,290.689606 194.425262,291.077209 
	C194.425262,293.244904 194.425262,295.133850 194.425262,297.013977 
	C196.701736,297.306305 198.617874,297.552368 200.975616,297.855133 
	C200.975616,312.062103 200.975616,325.969238 200.975616,339.932129 
	C204.013763,339.932129 206.551010,339.932129 209.358414,339.932129 
	C209.358414,328.872345 209.358429,318.235748 209.358429,307.599152 
	C209.358444,298.148041 209.358871,298.152008 218.694992,297.101685 
	C218.976929,297.069946 219.227188,296.756622 219.429352,296.617767 
	C219.429352,294.517334 219.429352,292.475220 219.429352,290.129822 
	C217.514404,290.129822 216.031311,290.164856 214.550613,290.120361 
	C212.945709,290.072174 211.343048,289.949829 209.550659,289.849243 
	C209.550659,286.516724 209.344635,283.690948 209.591507,280.905304 
	C210.192535,274.123596 212.568039,272.381409 219.448212,273.057861 
	C220.447052,273.156067 221.528915,272.409851 222.811554,271.356354 
M434.661499,330.589325 
	C435.482025,340.664093 447.729706,344.631470 457.417175,338.884857 
	C456.917236,337.254639 456.402710,335.576874 455.880554,333.874237 
	C454.762573,333.965698 454.107330,334.002533 453.456085,334.075134 
	C445.272491,334.987946 442.971985,333.272980 442.688934,325.228790 
	C442.407959,317.242645 442.651733,309.239288 442.492889,301.246948 
	C442.429993,298.084045 443.881470,297.201477 446.743164,297.340485 
	C449.694855,297.483887 452.658905,297.372375 455.691833,297.372375 
	C455.691833,294.739990 455.691833,292.662964 455.691833,290.042511 
	C451.297943,290.042511 447.212860,290.042511 442.407837,290.042511 
	C442.407837,285.144928 442.407837,280.780182 442.407837,276.409424 
	C439.738678,276.409424 437.805542,276.409424 435.976746,276.409424 
	C433.102692,281.656677 439.172394,292.015045 426.841003,290.824646 
	C426.841003,293.142426 426.841003,295.028839 426.841003,297.076904 
	C429.290405,297.297211 431.406708,297.487579 434.426544,297.759186 
	C434.426544,308.520447 434.426544,319.141357 434.661499,330.589325 
M254.534348,269.026154 
	C254.522141,278.523682 254.444244,288.021667 254.514374,297.518585 
	C254.601685,309.340485 254.505249,321.176422 255.080414,332.977386 
	C255.436600,340.285339 260.576569,342.997986 268.436737,340.251617 
	C267.761902,338.386017 267.533905,335.282379 266.302399,334.813354 
	C262.557129,333.386902 263.020935,330.625671 263.016235,327.863556 
	C262.989807,312.367401 263.003448,296.871124 263.003418,281.374908 
	C263.003387,276.749908 263.003418,272.124908 263.003418,266.549469 
	C259.816772,267.160980 257.239288,267.655579 254.534348,269.026154 
M108.037895,326.493042 
	C108.037895,330.944153 108.037895,335.395264 108.037895,340.093384 
	C111.073692,340.093384 113.642372,340.093384 116.693596,340.093384 
	C116.693596,331.360138 116.693306,322.919403 116.693665,314.478699 
	C116.694199,301.859131 121.591820,296.852203 134.187500,296.957733 
	C134.608795,294.809692 135.042450,292.598602 135.516449,290.181793 
	C126.500160,286.725739 121.367981,292.267334 116.146744,298.171844 
	C115.622437,295.064819 115.220642,292.683777 114.837296,290.412079 
	C112.410759,290.412079 110.486992,290.412079 108.037926,290.412079 
	C108.037926,302.301605 108.037926,313.898346 108.037895,326.493042 
M237.902802,306.502136 
	C237.902802,301.229279 237.902802,295.956421 237.902802,290.440887 
	C234.778152,290.440887 232.241699,290.440887 229.465942,290.440887 
	C229.465942,307.145477 229.465942,323.506409 229.465942,340.111877 
	C232.316238,340.111877 234.886902,340.111877 237.902710,340.111877 
	C237.902710,329.042877 237.902710,318.272217 237.902802,306.502136 
M415.821808,299.553375 
	C415.821808,296.494385 415.821808,293.435364 415.821808,290.445374 
	C412.484192,290.445374 410.075287,290.445374 407.442566,290.445374 
	C407.442566,307.151489 407.442566,323.502014 407.442566,340.108398 
	C410.267365,340.108398 412.824615,340.108398 415.821533,340.108398 
	C415.821533,326.705872 415.821533,313.621277 415.821808,299.553375 
M238.983063,276.640442 
	C239.113724,275.827209 239.447861,274.985931 239.340225,274.205566 
	C238.844193,270.609314 235.523483,268.408203 232.075562,269.434113 
	C228.597015,270.469208 227.160812,273.040771 228.296616,276.363556 
	C229.552399,280.037292 232.629837,280.686707 236.030182,279.471924 
	C237.038681,279.111633 237.794647,278.044464 238.983063,276.640442 
M406.769836,277.543915 
	C409.375732,280.570099 412.758759,281.188843 415.349060,278.403473 
	C416.653595,277.000732 417.063202,272.660370 415.990906,271.649445 
	C414.410461,270.159393 410.720795,269.467651 408.738098,270.319000 
	C407.272034,270.948547 407.094543,274.578949 406.769836,277.543915 
z&quot;/&gt;
<path
   fill="#4883d0"
   opacity="1"
   stroke="none"
   d="m 31.494213,45.94237 c -6.43766,0.79413 -12.51059,1.68549 -18.610008,1.93878 -3.411343,0.14167 -4.679116,1.08777 -4.587441,4.60349 0.181862,6.97403 -0.03367,13.95846 -0.09393,20.93854 -0.0013,0.15075 -0.110531,0.30059 -0.327244,0.85372 -2.38456,0 -4.942764,0 -7.875591,0 0,-22.14147 0,-44.33569 0,-67.3331598 11.140602,0.3754 22.428409,-1.33459 33.330883,2.53263 7.228546,2.5639898 10.930405,8.7702298 10.969345,17.2885998 0.04291,9.38962 -3.841209,15.31854 -12.806015,19.1774 M 8.150459,17.10607 c -9.08e-4,6.6387 -0.142055,13.28296 0.122433,19.91107 0.04947,1.23975 1.673969,3.40268 2.65646,3.45212 4.786945,0.24069 9.657917,0.31705 14.39458,-0.32267 C 31.530819,39.30831 35.142963,34.92058 35.7794,28.60186 36.389423,22.5454 34.232586,17.1762 29.161602,16.07485 22.789631,14.69091 16.084644,14.81539 9.515293,14.42491 9.1072,14.40071 8.628704,15.56105 8.150459,17.10607 Z"
   id="path1" />
<path
   fill="#4983d0"
   opacity="1"
   stroke="none"
   d="m 316.95829,6.3227402 c 9.49772,-1.12091 17.52549,1.07764 24.6081,8.0051898 -1.35279,1.64819 -2.66913,3.25198 -3.68723,4.4924 -4.64328,-1.7756 -8.79852,-4.03015 -13.21728,-4.83169 -3.20337,-0.58109 -7.03122,0.10464 -10.09549,1.38583 -6.35877,2.65869 -7.23715,11.05044 -1.51019,14.92972 4.21829,2.85736 9.15997,4.63843 13.74734,6.96219 3.25415,1.6484 6.73712,3.0231 9.62955,5.17611 11.06802,8.23853 9.56158,24.00769 -2.73828,30.43015 -11.25757,5.8782 -26.58808,2.93558 -36.08884,-7.32285 1.4975,-1.74106 3.05066,-3.54681 3.72369,-4.32931 6.40107,2.49768 11.89447,5.25268 17.71369,6.66406 3.09219,0.74997 7.02685,-0.17798 10.09573,-1.48694 7.25736,-3.09546 8.22684,-12.4913 1.7663,-17.0119 -3.63449,-2.54318 -7.94373,-4.12338 -11.95307,-6.12918 -3.41742,-1.70969 -7.01733,-3.13028 -10.22271,-5.17154 -5.76084,-3.66861 -8.84589,-8.93463 -8.00644,-16.0054 0.87985,-7.4112 5.315,-11.96247 11.99606,-14.6144998 1.22998,-0.48822 2.55505,-0.73685 4.23907,-1.14234 z"
   id="path2" />
<path
   fill="#4a84d0"
   opacity="1"
   stroke="none"
   d="m 446.57994,73.97502 c -12.98831,3.91776 -23.8154,0.79599 -29.66077,-8.28793 -6.73093,-10.46011 -5.75058,-26.22308 2.31332,-34.96271 5.76056,-6.24319 12.84342,-8.77859 21.22965,-6.64871 8.27158,2.10074 12.3382,8.07236 13.76083,16.01935 0.63263,3.53409 0.56067,7.19427 0.86359,11.59775 -6.14008,0 -11.582,0 -17.0239,0 -5.46005,0 -10.92007,0 -16.34106,0 -0.81293,14.81958 11.87747,20.9256 28.16891,13.80096 0.50879,0.73346 1.12198,1.48151 1.57966,2.31497 0.47009,0.85614 0.7883,1.79566 1.31036,3.02121 -2.04999,1.04621 -3.94785,2.01474 -6.20059,3.14511 M 426.0951,33.86028 c -1.93243,3.49792 -3.86486,6.99585 -6.20776,11.23675 9.99994,0 18.52002,0 27.23322,0 0.2615,-5.59808 -0.76688,-10.36578 -5.66651,-13.17816 -5.13617,-2.94809 -10.17019,-2.17065 -15.35895,1.94141 z"
   id="path3" />
<path
   fill="#4a84d0"
   opacity="1"
   stroke="none"
   d="m 234.88594,70.47844 c -12.86533,-12.54135 -11.26541,-34.98303 2.83282,-43.87091 11.86411,-7.4794 26.13559,-2.08014 29.64148,11.4697 1.05945,4.09466 1.05008,8.46588 1.63272,13.61554 -6.31543,0 -11.74243,0 -17.16946,0 -5.4487,0 -10.8974,0 -16.25525,0 -1.79779,14.36691 11.37411,20.65893 28.13635,13.82733 0.83521,1.5173 1.68927,3.06882 2.50583,4.55221 -8.63873,7.57337 -20.84827,7.73166 -31.32449,0.40613 m 9.65478,-25.03772 c 5.41687,0 10.83377,0 16.20188,0 0.29834,-9.65344 -4.2378,-15.14853 -11.91684,-15.18597 -7.59238,-0.037 -13.56583,6.38061 -13.61954,15.1861 2.78177,0 5.56641,0 9.3345,-1.3e-4 z"
   id="path4" />
<path
   fill="#4a84d0"
   opacity="1"
   stroke="none"
   d="m 91.936019,36.34075 c 6.64984,-11.0994 16.435961,-15.30933 27.080321,-11.93326 10.28213,3.26114 17.04098,14.25974 16.347,26.44873 -0.49837,8.75363 -3.35327,16.39172 -10.92516,21.35828 -12.75226,8.36444 -29.643021,1.79843 -34.016691,-13.09842 -2.23161,-7.60089 -1.93959,-15.12613 1.51453,-22.77533 m 11.073541,28.52093 c 7.594,6.26606 17.25418,4.55408 21.26639,-4.06427 3.48212,-7.47973 3.4027,-15.17492 -0.19494,-22.67029 -2.36849,-4.93447 -6.43114,-7.66748 -11.9014,-7.66824 -5.51975,-7.3e-4 -9.69109,2.89331 -11.8029,7.82645 -3.821021,8.92575 -3.821711,17.77728 2.63285,26.57635 z"
   id="path5" />
<path
   fill="#4782d0"
   opacity="1"
   stroke="none"
   d="m 171.69066,6.0203102 c -1.16305,0.70447 -2.24491,1.45069 -3.24375,1.35248 -6.88017,-0.67645 -9.25568,1.06574 -9.8567,7.8474398 -0.24688,2.78565 -0.0409,5.61142 -0.0409,8.94394 1.79239,0.10059 3.39505,0.22293 4.99995,0.27112 1.4807,0.0445 2.96379,0.009 4.87874,0.009 0,2.3454 0,4.38751 0,6.48795 -0.20216,0.13885 -0.45242,0.45218 -0.73436,0.48391 -9.33612,1.05033 -9.33655,1.04636 -9.33656,10.49747 0,10.6366 -2e-5,21.27319 -2e-5,32.33298 -2.8074,0 -5.34465,0 -8.38279,0 0,-13.96289 0,-27.87003 0,-42.077 -2.35775,-0.30276 -4.27388,-0.54883 -6.55036,-0.84115 0,-1.88013 0,-3.76908 0,-5.93677 1.94969,-0.3876 4.00174,-0.79556 6.57179,-1.30652 0,-3.37005 -0.15228,-6.67401 0.028,-9.95975 0.58983,-10.7519498 10.07328,-16.6471498 20.33229,-13.0879798 3.3026,1.14578 1.67431,2.88663 1.33465,4.98242 z"
   id="path6" />
<path
   fill="#4983d0"
   opacity="1"
   stroke="none"
   d="m 383.54271,64.49071 c -0.11747,-11.03442 -0.11747,-21.65533 -0.11747,-32.41659 -3.01983,-0.27161 -5.13613,-0.46198 -7.58554,-0.68229 0,-2.04806 0,-3.93447 0,-6.25225 12.33139,1.19039 6.26169,-9.16797 9.13575,-14.41523 1.82879,0 3.76193,0 6.43109,0 0,4.37076 0,8.73551 0,13.63309 4.80502,0 8.8901,0 13.28399,0 0,2.62045 0,4.69748 0,7.32986 -3.03293,0 -5.99697,0.11152 -8.94867,-0.0319 -2.86169,-0.139 -4.31317,0.74356 -4.25027,3.90647 0.15884,7.99234 -0.0849,15.99569 0.19604,23.98184 0.28306,8.04419 2.58356,9.75916 10.76715,8.84634 0.65125,-0.0726 1.30649,-0.10943 2.42447,-0.20089 0.52216,1.70263 1.03669,3.3804 1.53662,5.01062 -9.68746,5.74661 -21.93514,1.77923 -22.87316,-8.70908 z"
   id="path7" />
<path
   fill="#4581cf"
   opacity="1"
   stroke="none"
   d="m 203.59678,2.9030902 c 2.64121,-0.93258 5.21869,-1.42718 8.40534,-2.03869005 0,5.57544005 -3e-5,10.20043985 0,14.82543985 3e-5,15.49621 -0.0136,30.99249 0.0128,46.48865 0.005,2.76211 -0.4591,5.52334 3.28617,6.94979 1.2315,0.46903 1.4595,3.57267 2.13434,5.43827 -7.86017,2.74637 -13.00014,0.0337 -13.35633,-7.27423 -0.57516,-11.80097 -0.47873,-23.63691 -0.56604,-35.45881 -0.0701,-9.49691 0.008,-18.9949 0.0837,-28.9304198 z"
   id="path8" />
<path
   fill="#4d86d1"
   opacity="1"
   stroke="none"
   d="m 57.036609,60.30901 c 2e-5,-12.09573 2e-5,-23.69248 2e-5,-35.582 2.44906,0 4.37283,0 6.79937,0 0.38334,2.2717 0.78514,4.65274 1.30944,7.75976 5.22124,-5.90451 10.35342,-11.4461 19.36971,-7.99005 -0.474,2.41681 -0.90766,4.6279 -1.32895,6.77594 -12.59568,-0.10553 -17.4933,4.9014 -17.49384,17.52097 -3.5e-4,8.4407 -6e-5,16.88144 -6e-5,25.61468 -3.05123,0 -5.61991,0 -8.6557,0 0,-4.69812 0,-9.14923 10e-6,-14.0993 z"
   id="path9" />
<path
   fill="#5088d1"
   opacity="1"
   stroke="none"
   d="m 186.90146,41.31676 c -5e-5,11.27039 -5e-5,22.04105 -5e-5,33.11005 -3.01581,0 -5.58647,0 -8.43677,0 0,-16.60547 0,-32.9664 0,-49.67099 2.77576,0 5.31221,0 8.43686,0 0,5.51553 0,10.78839 -4e-5,16.56094 z"
   id="path10" />
<path
   fill="#538ad2"
   opacity="1"
   stroke="none"
   d="m 364.82036,34.35997 c -1.3e-4,13.57624 -1.3e-4,26.66083 -1.3e-4,40.06336 -2.99692,0 -5.55417,0 -8.37896,0 0,-16.60639 0,-32.95691 0,-49.66303 2.63272,0 5.04162,0 8.37924,0 0,2.98999 0,6.04902 -1.5e-4,9.59967 z"
   id="path11" />
<path
   fill="#4a84d0"
   opacity="1"
   stroke="none"
   d="m 187.82341,11.28575 c -1.03006,1.07364 -1.78603,2.14081 -2.79453,2.5011 -3.40034,1.21479 -6.47778,0.56537 -7.73356,-3.10836 -1.13581,-3.3227898 0.30039,-5.8943498 3.77894,-6.9294498 3.44792,-1.02591 6.76863,1.1752 7.26466,4.77146 0.10764,0.78036 -0.2265,1.6216398 -0.51551,2.7652498 z"
   id="path12" />
<path
   fill="#4a84d0"
   opacity="1"
   stroke="none"
   d="m 355.5551,11.52312 c 0.53814,-2.6292398 0.71563,-6.2596398 2.1817,-6.8891898 1.98269,-0.85135 5.67236,-0.15961 7.25281,1.33045 1.07229,1.01092 0.66268,5.3512798 -0.64185,6.7540198 -2.5903,2.78537 -5.97333,2.16663 -8.79266,-1.19528 z"
   id="path13" />
<path
   fill="none"
   opacity="0"
   stroke="none"
   d="m 8.166714,16.63817 c 0.46199,-1.07712 0.940486,-2.23749 1.348579,-2.21326 6.569351,0.39048 13.274338,0.266 19.646309,1.64994 5.070984,1.10135 7.227821,6.47055 6.617798,12.52701 -0.636437,6.31872 -4.248581,10.70645 -10.455468,11.54473 -4.736663,0.63972 -9.607635,0.56336 -14.39458,0.32267 C 9.946861,40.41986 8.322361,38.25689 8.272892,37.01714 8.008404,30.38903 8.149551,23.74477 8.166714,16.63817 Z"
   id="path14" />
<path
   fill="none"
   opacity="0"
   stroke="none"
   d="m 426.37602,33.61333 c 4.90784,-3.86511 9.94186,-4.64255 15.07803,-1.69446 4.89963,2.81238 5.92801,7.58008 5.66651,13.17816 -8.7132,0 -17.23328,0 -27.23322,0 2.3429,-4.2409 4.27533,-7.73883 6.48868,-11.4837 z"
   id="path15" />
<path
   fill="none"
   opacity="0"
   stroke="none"
   d="m 244.04899,45.44078 c -3.27636,7e-5 -6.061,7e-5 -8.84277,7e-5 0.0537,-8.80549 6.02716,-15.22312 13.61954,-15.1861 7.67904,0.0374 12.21518,5.53253 11.91684,15.18597 -5.36811,0 -10.78501,0 -16.69361,6e-5 z"
   id="path16" />
<path
   fill="none"
   opacity="0"
   stroke="none"
   d="m 102.74998,64.58647 c -6.194981,-8.52386 -6.194291,-17.37539 -2.37327,-26.30114 2.11181,-4.93314 6.28315,-7.82718 11.8029,-7.82645 5.47026,7.6e-4 9.53291,2.73377 11.9014,7.66824 3.59764,7.49537 3.67706,15.19056 0.19494,22.67029 -4.01221,8.61835 -13.67239,10.33033 -21.52597,3.78906 z"
   id="path17" />
</svg>
